<svg width="60" height="37" viewBox="0 0 60 37" fill="none" xmlns="http://www.w3.org/2000/svg">
<path d="M30 0.75C32.3206 0.75 34.5462 1.67187 36.1872 3.31282C37.8281 4.95376 38.75 7.17936 38.75 9.5C38.75 11.8206 37.8281 14.0462 36.1872 15.6872C34.5462 17.3281 32.3206 18.25 30 18.25C27.6794 18.25 25.4538 17.3281 23.8128 15.6872C22.1719 14.0462 21.25 11.8206 21.25 9.5C21.25 7.17936 22.1719 4.95376 23.8128 3.31282C25.4538 1.67187 27.6794 0.75 30 0.75ZM12.5 7C13.9 7 15.2 7.375 16.325 8.05C15.95 11.625 17 15.175 19.15 17.95C17.9 20.35 15.4 22 12.5 22C10.5109 22 8.60322 21.2098 7.1967 19.8033C5.79018 18.3968 5 16.4891 5 14.5C5 12.5109 5.79018 10.6032 7.1967 9.1967C8.60322 7.79018 10.5109 7 12.5 7ZM47.5 7C49.4891 7 51.3968 7.79018 52.8033 9.1967C54.2098 10.6032 55 12.5109 55 14.5C55 16.4891 54.2098 18.3968 52.8033 19.8033C51.3968 21.2098 49.4891 22 47.5 22C44.6 22 42.1 20.35 40.85 17.95C43.0297 15.136 44.0414 11.5905 43.675 8.05C44.8 7.375 46.1 7 47.5 7ZM13.75 32.625C13.75 27.45 21.025 23.25 30 23.25C38.975 23.25 46.25 27.45 46.25 32.625V37H13.75V32.625ZM0 37V33.25C0 29.775 4.725 26.85 11.125 26C9.65 27.7 8.75 30.05 8.75 32.625V37H0ZM60 37H51.25V32.625C51.25 30.05 50.35 27.7 48.875 26C55.275 26.85 60 29.775 60 33.25V37Z" fill="black"/>
</svg>
