<svg width="111" height="100" viewBox="0 0 111 100" fill="none" xmlns="http://www.w3.org/2000/svg">
<path d="M93.5 54.5L65 83H53.5V71.5L82 43L93.5 54.5ZM110.5 50.5C110.5 52 109 53.5 107.5 55L95 67.5L90.5 63L103.5 50L100.5 47L97 50.5L85.5 39L96.5 28.5C97.5 27.5 99.5 27.5 101 28.5L108 35.5C109 36.5 109 38.5 108 40C107 41 106 42 106 43C106 44 107 45 108 46C109.5 47.5 111 49 110.5 50.5ZM10 90V10H45V35H70V42.5L80 32.5V30L50 0H10C4.5 0 0 4.5 0 10V90C0 95.5 4.5 100 10 100H70C75.5 100 80 95.5 80 90H10ZM50 75.5C49 75.5 48 76 47.5 76L45 65H37.5L27 73.5L30 60H22.5L17.5 85H25L39.5 72L42.5 83.5H47.5L50 83V75.5Z" fill="black"/>
</svg>
