<svg width="91" height="108" viewBox="0 0 91 108" fill="none" xmlns="http://www.w3.org/2000/svg">
<path d="M45.0547 0.697754C41.5625 0.768066 39.0547 1.44775 37.3907 2.6665L14.586 14.8774L1.90628 32.1251C-0.76559 36.2501 1.13285 44.2188 9.4766 39.1095L18.6172 27.0626C30.2188 17.0571 53.8907 21.6485 42.6641 41.7345C37.1563 53.3595 39.7344 59.0313 46.836 61.422L50.0703 50.547C55.6719 37.9376 66.125 35.6642 65.7032 25.4923L90.8282 27.297L90.5938 1.02588L45.0547 0.697754ZM32.375 24.9298C28.2969 24.8595 24.2891 26.547 21.3828 28.9845L12.2188 41.0313C14.7266 43.0235 17.2578 41.9454 19.7657 39.5313C22.7188 41.0313 25.0157 38.711 26.8907 34.0704C27.6641 30.9063 28.8125 28.6798 32.375 24.9298ZM13.7188 47.4298C13.625 47.4298 13.5078 47.4298 13.4141 47.4532C12.6407 47.6173 11.7266 48.4376 11.1172 50.3126C10.4844 52.1876 10.3438 54.8595 10.9063 57.7188C11.4688 60.5548 12.6407 62.9688 13.9532 64.4688C15.2188 65.9454 16.3907 66.3673 17.1641 66.2032C17.961 66.0626 18.8516 65.2188 19.461 63.3673C20.0938 61.4923 20.2578 58.797 19.6953 55.961C19.1094 53.1017 17.9375 50.6876 16.6485 49.211C15.5235 47.8985 14.4922 47.4298 13.7188 47.4298ZM33.0782 72.461C31.2266 72.4845 28.9063 73.0704 26.6328 74.172C24.0313 75.461 21.9922 77.2423 20.8907 78.8829C19.7891 80.5001 19.6953 81.7188 20.0469 82.4454C20.3985 83.1485 21.4297 83.8282 23.3985 83.922C25.3672 84.0392 28.0157 83.5001 30.6172 82.211C33.2188 80.922 35.2578 79.1642 36.3594 77.5235C37.461 75.9063 37.5547 74.6642 37.2032 73.961C36.8516 73.2345 35.8203 72.5782 33.8516 72.4845C33.5938 72.461 33.3594 72.461 33.0782 72.461ZM10.2032 94.8673C9.1016 94.8907 8.09378 95.0548 7.20316 95.3126C5.21097 95.8985 4.06253 96.9532 3.68753 98.1954C3.2891 99.461 3.68754 100.961 5.02347 102.578C6.38285 104.172 8.65629 105.695 11.4688 106.539C14.2578 107.383 16.9766 107.359 18.9922 106.75C21.0078 106.164 22.1563 105.109 22.5313 103.867C22.9063 102.602 22.5313 101.102 21.1719 99.4845C19.836 97.8907 17.5625 96.3673 14.75 95.5235C13.1563 95.0548 11.6094 94.8438 10.2032 94.8673Z" fill="black"/>
</svg>
