<svg width="112" height="111" viewBox="0 0 112 111" fill="none" xmlns="http://www.w3.org/2000/svg">
<path d="M56.25 0C56.1328 0 55.9688 1.97324e-07 55.8281 0.0281252C54.75 0.227344 53.4609 1.22344 52.6172 3.49922C51.7266 5.77266 51.5391 9.01406 52.3125 12.4852C53.1094 15.9141 54.75 18.8695 56.5781 20.6742C58.3594 22.4789 59.9766 22.9711 61.0547 22.7836C62.1797 22.6195 63.4219 21.5883 64.2656 19.3383C65.1562 17.0789 65.3906 13.793 64.5938 10.35C63.7734 6.88125 62.1562 3.95391 60.3281 2.16094C58.7812 0.567188 57.3516 0 56.25 0ZM83.2969 30.3539C80.7188 30.4242 77.4609 31.1039 74.2969 32.4398C70.6406 34.0336 67.8281 36.1664 66.2812 38.182C64.7344 40.1273 64.5938 41.6039 65.0859 42.4711C65.6016 43.3383 67.0312 44.1586 69.7734 44.2758C72.5156 44.4398 76.2188 43.7602 79.8516 42.2133C83.4844 40.643 86.3438 38.4867 87.8906 36.518C89.4375 34.5727 89.5547 33.0492 89.0625 32.182C88.5703 31.2914 87.1172 30.518 84.375 30.4242C84 30.3539 83.6719 30.3539 83.2969 30.3539ZM51.3516 52.1273C49.8047 52.1508 48.3984 52.3383 47.1328 52.6664C44.3672 53.3695 42.7734 54.6352 42.2578 56.1586C41.6719 57.682 42.2578 59.5102 44.0859 61.4789C46.0078 63.4008 49.1719 65.2523 53.1094 66.2836C57.0234 67.3148 60.7969 67.2914 63.6094 66.5414C66.4453 65.8148 68.0391 64.5258 68.5547 63.0258C69.0938 61.5023 68.5547 59.6977 66.6562 57.7055C64.8047 55.7836 61.6406 53.932 57.7031 52.9242C55.4766 52.3383 53.2969 52.1039 51.3516 52.1273ZM89.0156 65.7445L74.5312 72.6117C75.5156 72.6586 77.9766 72.7289 77.9766 72.7289L79.5234 74.768L92.3438 68.0883L89.0156 65.7445ZM76.2422 65.768L62.7891 72.143C64.0781 72.2133 67.125 72.2602 68.3438 72.3305L80.0156 66.7992L76.2422 65.768ZM97.9453 68.2992L81.4219 77.0648L84.8203 81.4477L102.281 70.9945L97.9453 68.2992ZM32.6016 70.432C31.8919 70.4307 31.1843 70.5093 30.4922 70.6664C13.7344 74.5336 3.84375 74.8617 0.914062 74.8617H0V100.057C0 100.057 2.71875 99.6586 7.24219 99.6352C15.9844 99.6352 31.3828 101.135 46.3828 109.901C47.1797 110.393 48.8906 110.58 51.0234 110.58C56.7188 110.58 65.3672 109.221 67.3594 108.471C87.4219 100.948 111.562 80.2992 111.562 80.2992L103.945 73.643C103.945 73.643 85.2422 85.5727 82.875 86.7211C61.5234 97.1977 44.2266 90.6586 44.2266 90.6586C44.2266 90.6586 72.3281 91.3617 81.3516 84.2602L76.0547 76.2914C76.0547 76.2914 56.6484 75.7523 49.7344 74.8383C46.125 74.3695 38.3203 70.432 32.6016 70.432Z" fill="black"/>
</svg>
