<svg width="97" height="93" viewBox="0 0 97 93" fill="none" xmlns="http://www.w3.org/2000/svg">
<path fill-rule="evenodd" clip-rule="evenodd" d="M83 92.5002H18C13.3587 92.5002 8.90752 90.6565 5.62563 87.3746C2.34374 84.0927 0.5 79.6415 0.5 75.0002V9.7152C0.5 4.3802 5.78 0.995203 10.425 2.6052C11.09 2.8352 11.74 3.1702 12.36 3.6152L13.235 4.2402C15.3633 5.75034 17.9094 6.55946 20.519 6.55498C23.1286 6.5505 25.6719 5.73264 27.795 4.2152C30.7752 2.09428 34.3422 0.95459 38 0.95459C41.6578 0.95459 45.2248 2.09428 48.205 4.2152C50.3281 5.73264 52.8714 6.5505 55.481 6.55498C58.0906 6.55946 60.6367 5.75034 62.765 4.2402L63.64 3.6152C68.605 0.0652042 75.5 3.6152 75.5 9.7152V47.5002H93C93.9946 47.5002 94.9484 47.8953 95.6517 48.5986C96.3549 49.3018 96.75 50.2556 96.75 51.2502V78.7502C96.75 82.3969 95.3013 85.8943 92.7227 88.4729C90.1441 91.0515 86.6467 92.5002 83 92.5002ZM76.75 55.0002V78.7502C76.75 80.4078 77.4085 81.9975 78.5806 83.1696C79.7527 84.3417 81.3424 85.0002 83 85.0002C84.6576 85.0002 86.2473 84.3417 87.4194 83.1696C88.5915 81.9975 89.25 80.4078 89.25 78.7502V55.0002H76.75ZM55.5 33.7502C55.5 32.7556 55.1049 31.8018 54.4016 31.0986C53.6984 30.3953 52.7446 30.0002 51.75 30.0002H21.75C20.7554 30.0002 19.8016 30.3953 19.0983 31.0986C18.3951 31.8018 18 32.7556 18 33.7502C18 34.7448 18.3951 35.6986 19.0983 36.4019C19.8016 37.1051 20.7554 37.5002 21.75 37.5002H51.75C52.7446 37.5002 53.6984 37.1051 54.4016 36.4019C55.1049 35.6986 55.5 34.7448 55.5 33.7502ZM50.5 48.7502C50.5 47.7556 50.1049 46.8018 49.4016 46.0986C48.6984 45.3953 47.7446 45.0002 46.75 45.0002H21.75C20.7554 45.0002 19.8016 45.3953 19.0983 46.0986C18.3951 46.8018 18 47.7556 18 48.7502C18 49.7448 18.3951 50.6986 19.0983 51.4019C19.8016 52.1051 20.7554 52.5002 21.75 52.5002H46.75C47.7446 52.5002 48.6984 52.1051 49.4016 51.4019C50.1049 50.6986 50.5 49.7448 50.5 48.7502ZM51.75 60.0002C52.7446 60.0002 53.6984 60.3953 54.4016 61.0986C55.1049 61.8018 55.5 62.7556 55.5 63.7502C55.5 64.7448 55.1049 65.6986 54.4016 66.4019C53.6984 67.1051 52.7446 67.5002 51.75 67.5002H21.75C20.7554 67.5002 19.8016 67.1051 19.0983 66.4019C18.3951 65.6986 18 64.7448 18 63.7502C18 62.7556 18.3951 61.8018 19.0983 61.0986C19.8016 60.3953 20.7554 60.0002 21.75 60.0002H51.75Z" fill="black"/>
</svg>
