<svg width="108" height="87" viewBox="0 0 108 87" fill="none" xmlns="http://www.w3.org/2000/svg">
<path d="M6 12C7.5913 12 9.11742 11.3679 10.2426 10.2426C11.3679 9.11742 12 7.5913 12 6C12 4.4087 11.3679 2.88258 10.2426 1.75736C9.11742 0.632142 7.5913 0 6 0C4.4087 0 2.88258 0.632142 1.75736 1.75736C0.632141 2.88258 0 4.4087 0 6C0 7.5913 0.632141 9.11742 1.75736 10.2426C2.88258 11.3679 4.4087 12 6 12ZM24 6C24 5.20435 24.3161 4.44129 24.8787 3.87868C25.4413 3.31607 26.2044 3 27 3H93C93.7956 3 94.5587 3.31607 95.1213 3.87868C95.6839 4.44129 96 5.20435 96 6C96 6.79565 95.6839 7.55871 95.1213 8.12132C94.5587 8.68393 93.7956 9 93 9H27C26.2044 9 25.4413 8.68393 24.8787 8.12132C24.3161 7.55871 24 6.79565 24 6ZM27 33C26.2044 33 25.4413 33.3161 24.8787 33.8787C24.3161 34.4413 24 35.2043 24 36C24 36.7957 24.3161 37.5587 24.8787 38.1213C25.4413 38.6839 26.2044 39 27 39H55.542C57.42 36.72 59.604 34.704 62.022 33H27ZM49.242 69C48.6871 67.0387 48.3155 65.03 48.132 63H27C26.2044 63 25.4413 63.3161 24.8787 63.8787C24.3161 64.4413 24 65.2044 24 66C24 66.7956 24.3161 67.5587 24.8787 68.1213C25.4413 68.6839 26.2044 69 27 69H49.242ZM6 72C7.5913 72 9.11742 71.3679 10.2426 70.2426C11.3679 69.1174 12 67.5913 12 66C12 64.4087 11.3679 62.8826 10.2426 61.7574C9.11742 60.6321 7.5913 60 6 60C4.4087 60 2.88258 60.6321 1.75736 61.7574C0.632141 62.8826 0 64.4087 0 66C0 67.5913 0.632141 69.1174 1.75736 70.2426C2.88258 71.3679 4.4087 72 6 72ZM6 42C7.5913 42 9.11742 41.3679 10.2426 40.2426C11.3679 39.1174 12 37.5913 12 36C12 34.4087 11.3679 32.8826 10.2426 31.7574C9.11742 30.6321 7.5913 30 6 30C4.4087 30 2.88258 30.6321 1.75736 31.7574C0.632141 32.8826 0 34.4087 0 36C0 37.5913 0.632141 39.1174 1.75736 40.2426C2.88258 41.3679 4.4087 42 6 42ZM108 60C108 67.1608 105.155 74.0284 100.092 79.0919C95.0284 84.1554 88.1608 87 81 87C73.8392 87 66.9716 84.1554 61.9081 79.0919C56.8446 74.0284 54 67.1608 54 60C54 52.8392 56.8446 45.9716 61.9081 40.9081C66.9716 35.8446 73.8392 33 81 33C88.1608 33 95.0284 35.8446 100.092 40.9081C105.155 45.9716 108 52.8392 108 60ZM92.124 53.124C92.6873 52.5607 93.0038 51.7967 93.0038 51C93.0038 50.2033 92.6873 49.4393 92.124 48.876C91.5607 48.3127 90.7967 47.9962 90 47.9962C89.2033 47.9962 88.4393 48.3127 87.876 48.876L81 55.758L74.124 48.876C73.5607 48.3127 72.7967 47.9962 72 47.9962C71.2033 47.9962 70.4393 48.3127 69.876 48.876C69.3127 49.4393 68.9962 50.2033 68.9962 51C68.9962 51.7967 69.3127 52.5607 69.876 53.124L76.758 60L69.876 66.876C69.3127 67.4393 68.9962 68.2033 68.9962 69C68.9962 69.7967 69.3127 70.5607 69.876 71.124C70.4393 71.6873 71.2033 72.0038 72 72.0038C72.7967 72.0038 73.5607 71.6873 74.124 71.124L81 64.242L87.876 71.124C88.4393 71.6873 89.2033 72.0038 90 72.0038C90.7967 72.0038 91.5607 71.6873 92.124 71.124C92.6873 70.5607 93.0038 69.7967 93.0038 69C93.0038 68.2033 92.6873 67.4393 92.124 66.876L85.242 60L92.124 53.124Z" fill="black"/>
</svg>
